<?xml version="1.0" encoding="UTF-8"?>
<svg id="Layer_2" data-name="Layer 2" xmlns="http://www.w3.org/2000/svg" viewBox="0 0 2869.43 458.15">
  <defs>
    <style>
      .cls-1 {
        fill: none;
        stroke: #dcca86;
        stroke-linejoin: round;
        stroke-width: 30px;
      }
    </style>
  </defs>
  <g id="Layer_1-2" data-name="Layer 1">
    <path class="cls-1" d="M2854.43,67.24c0-9-6.93-16.47-15.9-17.15-86.87-6.48-506.84-37-689.51-34.99-216.75,2.4-157.25,151.6-301,158.55-346.96,16.77-1099.13-120.38-1652.07-102.25C50.26,76.17,15,149.96,15,228.78s35.26,153.2,180.95,157.97c552.94,18.13,1305.11-119.02,1652.07-102.25,143.75,6.95,84.25,156.15,301,158.55,182.67,2.01,602.64-28.51,689.51-34.99,8.97-.68,15.9-8.15,15.9-17.15v-.54c0-9.35-7.48-16.99-16.83-17.19-107.1-2.26-689.15-14.58-689.15-14.58-17.36,0-17.23-17.23-17.23-17.23,0,0,.04-16.66,17.23-16.66,0,0,582.97-20.87,689.4-24.68,9.25-.33,16.58-7.92,16.58-17.18v-.02c0-9.3-7.4-16.92-16.7-17.18-106.77-3.05-689.28-19.64-689.28-19.64-17.56,0-17.23-17.23-17.23-17.23,0,0-.22-16.66,17.23-16.66,0,0,582.51-16.59,689.28-19.63,9.3-.26,16.7-7.88,16.7-17.18v-.04c0-9.24-7.32-16.84-16.56-17.17-106.4-3.9-689.42-25.25-689.42-25.25-17.73,0-17.23-16.08-17.23-16.08,0,0,.07-17.24,17.23-17.24,0,0,582.05-12.31,689.15-14.57,9.35-.2,16.83-7.84,16.83-17.19v-.54Z"/>
  </g>
</svg>