<?xml version="1.0" encoding="UTF-8"?>
<svg id="Layer_2" data-name="Layer 2" xmlns="http://www.w3.org/2000/svg" viewBox="0 0 687.89 126.66">
  <defs>
    <style>
      .cls-1, .cls-2, .cls-3, .cls-4 {
        stroke-width: 0px;
      }

      .cls-1 {
        fill: #138d44;
      }

      .cls-2 {
        fill: #e0e1e2;
      }

    </style>
  </defs>
  <g id="Layer_1-2" data-name="Layer 1">
    <g>
      <rect class="cls-1" x="320.74" width="126.66" height="126.66"/>
      <path class="cls-2" d="M238.36,88.54c-.26-19.13,3.12-13.64-12.9-23.72-8.1-5.1-11.81-11.68-11.43-20.99.34-8.46-.66-16.96.83-25.38,1.29-7.28,3.35-9.18,10.49-10.5,7.13-1.31,14.19-1.07,21.29.1,4.97.82,8.1,3.47,9.06,8.52,1.67,8.74.81,17.57,1.04,26.36.05,1.92-1.08,2.1-2.56,2.09-4.32-.03-8.65-.12-12.97.03-2.27.08-2.8-.87-2.76-2.93.1-5.48.08-10.97,0-16.46-.03-2.17-.07-4.64-3.21-4.56-3.12.08-3.03,2.59-3.05,4.73-.07,5.65,0,11.3-.03,16.96-.01,3.28,1.33,5.63,4.26,7.3,3.74,2.13,7.26,4.66,10.98,6.83,5.79,3.38,9.07,8.37,9.16,15.01.16,11.79.86,23.6-.51,35.36-.87,7.51-3.03,9.4-10.64,10.76-7.14,1.28-14.21,1.03-21.3-.18-4.93-.84-8.1-3.51-9.02-8.59-2-11.06-.67-22.23-1.08-33.34-.07-2,1.17-2.01,2.58-2,3.82.02,7.66.2,11.47-.06,3.14-.21,4.31.6,4.17,4.01-.29,6.8-.1,13.63-.07,20.44,0,1.32,0,2.68.29,3.96.36,1.56,1.32,2.61,3.16,2.6,2-.01,2.65-1.36,2.69-2.92.11-4.48.04-8.97.04-13.46Z"/>
      <path class="cls-2" d="M555.55,90.09c0-3.66.28-7.34-.07-10.96-.38-3.96.57-5.81,4.98-5.23,4.23.56,9.88-1.76,12.46.85,2.56,2.59.62,8.19.73,12.46.12,4.49-.02,8.98.08,13.46.05,2.07.57,4.1,3.24,4.19,2.99.1,2.95-2.27,2.98-4.2.09-7.98,0-15.96.05-23.94.02-2.8-1.28-4.64-3.59-6.06-4.09-2.53-8.07-5.24-12.15-7.78-5.02-3.12-8.05-7.61-8.35-13.43-.54-10.45-1.1-20.93.53-31.34,1.08-6.89,3.43-8.9,10.25-10.15,7.12-1.3,14.18-1.09,21.29.05,5.24.84,8.36,3.66,9.3,8.88,1.55,8.58.75,17.24.97,25.87.05,1.78-.78,2.36-2.4,2.24-.33-.02-.67,0-1,0-4.79-.11-10.94,1.52-13.99-.85-2.89-2.24-.64-8.73-.87-13.34-.11-2.16.02-4.32-.13-6.48-.12-1.77-.79-3.22-2.96-3.29-2.19-.06-3.09,1.37-3.11,3.12-.07,6.97-.03,13.95.15,20.93.05,2.14,1.65,3.55,3.4,4.64,3.8,2.38,7.53,4.85,11.41,7.09,5.79,3.35,9.17,8.27,9.28,14.93.21,11.95.89,23.93-.52,35.86-.85,7.17-3.13,9.11-10.43,10.41-7.13,1.27-14.2,1.06-21.3-.13-5.18-.87-8.24-3.68-9.28-8.93-1.23-6.27-.88-12.58-.98-18.89Z"/>
      <path class="cls-2" d="M113.09,62.71c0-13.14-.2-26.28.06-39.42.23-11.93,2.67-14.51,14.41-15.95,6.3-.77,12.64-.39,18.86.88,3.57.73,6.54,2.53,7.59,6.37,2.5,9.16,1.03,18.53,1.41,27.8.04.97-.36,1.57-1.41,1.59-.5.01-1,.05-1.5.02-4.94-.29-11.19,2.03-14.43-.9-2.78-2.51-.59-8.8-.79-13.41-.08-1.83.01-3.66-.06-5.49-.07-1.91-.94-3.13-3.04-3.15-2.19-.02-2.83,1.4-2.97,3.22-.09,1.16-.12,2.33-.12,3.49,0,23.45,0,46.91,0,70.36,0,1.16.03,2.33.11,3.49.14,2.16,1.17,3.43,3.48,3.27,2.23-.16,2.57-1.74,2.58-3.53.01-7.82.3-15.65-.1-23.45-.22-4.36,1.26-5.49,5.27-4.99,4.24.53,9.95-1.82,12.39.98,2.08,2.38.62,7.93.59,12.07-.04,6.65.15,13.33-.36,19.94-.66,8.59-2.99,10.62-11.54,12.23-6.99,1.31-13.9.88-20.81-.31-4.69-.81-7.66-3.38-8.71-8.3-1.05-4.95-1.01-9.91-1.04-14.89-.06-10.65-.02-21.29-.02-31.94.05,0,.11,0,.16,0Z"/>
      <path class="cls-2" d="M394.26,63.48c0-16.79.09-33.58-.08-50.37-.03-3.29.89-4.22,4.16-4.11,7.31.25,14.63.21,21.94.01,2.9-.08,3.89.9,3.5,3.65-.12.81-.02,1.66-.02,2.49,0,7.71,0,7.83-7.64,7.84-2.67,0-3.78.52-3.69,3.5.22,6.97.2,13.97,0,20.94-.07,2.76.63,3.66,3.53,3.66,7.79,0,7.41.18,7.92,7.66.36,5.3-1.39,7.19-6.45,6.23-4.31-.82-5.17,1.09-5.04,5.11.31,9.8.24,19.62.02,29.42-.07,3.29.51,4.64,4.22,4.51,7.11-.26,7.12-.02,7.12,7.32q0,6.56-6.49,6.56c-6.32,0-12.65-.2-18.95.08-3.31.14-4.17-.87-4.14-4.13.16-16.79.07-33.58.07-50.37Z"/>
      <path class="cls-2" d="M613.35,70.48c0-14.3-.15-28.61.1-42.9.07-3.78-.96-5.25-4.66-4.51-4.32.87-4.7-1.48-4.63-4.97.18-9.01.05-9.01,9.06-9.01,7.65,0,15.32.27,22.95-.11,3.99-.2,4.96,1.22,4.44,4.73-.17,1.14-.19,2.35,0,3.48.79,4.6-.66,6.9-5.67,5.88-3.58-.73-3.5,1.55-3.49,4.09.05,28.6-.08,57.21.15,85.81.03,4.34-1.25,5.39-5.25,5-4.1-.4-9.64,1.34-12.04-.74-2.79-2.42-.87-8.08-.91-12.32-.12-11.47-.04-22.95-.04-34.42Z"/>
      <path class="cls-2" d="M.1,63.19c0-16.64.12-33.27-.09-49.91-.05-3.61,1.03-4.6,4.44-4.25,4.43.45,10.26-1.8,12.97.86,2.72,2.67.79,8.5.8,12.94.07,25.45.13,50.91-.07,76.36-.03,3.99,1.07,5.01,4.92,4.83,6.38-.31,6.4-.07,6.4,6.52,0,1.5-.1,3,.02,4.49.17,2.04-.37,2.96-2.69,2.92-7.99-.13-15.98-.19-23.96.02-3.35.09-2.74-1.95-2.74-3.86,0-16.97,0-33.94,0-50.91Z"/>
      <path class="cls-2" d="M384.95,29.08c0-3.33-.28-6.61-.85-9.92-.95-5.51-4.01-8.28-9.5-9.22-9.11-1.56-18.26-.36-27.37-.93-3.8-.24-5.05.75-4.99,4.8.25,16.46.1,32.93.1,49.4s.1,33.6-.08,50.4c-.04,3.52.94,4.53,4.42,4.36,5.98-.29,11.97-.08,17.96-.08,17.04,0,20.29-3.25,20.31-20.45.03-22.79,0-45.57,0-68.36ZM366.79,100.33c-.09,2.39-1.24,3.51-3.73,3.64-3.1.16-2.46-1.91-2.46-3.62-.02-12.45-.01-24.9-.01-37.34s-.01-24.23.01-36.35c0-1.67-.71-3.83,2.42-3.65,2.44.14,3.74,1.2,3.76,3.63.05,5.31.04,10.62.05,15.93,0,18.09,0,36.18,0,54.27,0,1.16,0,2.32-.04,3.48Z"/>
      <path class="cls-2" d="M79.53,113.96c-3.32-31.41-6.34-62.84-9.53-94.26-1.08-10.63-1.17-10.62-12.85-10.62-2.33,0-4.7.27-6.98-.06-4.48-.64-5.68,1.11-6.09,5.54-2.93,31.94-6.17,63.86-9.4,95.78-.76,7.56-.91,7.55,6.88,7.55,2.33,0,4.67-.17,6.98.05,2.41.22,3.19-.77,3.27-3.03.21-5.65.71-11.29.8-16.94.05-3.12,1.01-4.15,4.31-4.19,3.45-.03,4.28,1.21,4.22,4.29-.07,3.32.21,6.64.4,9.96q.56,9.85,10.18,9.84c1.33,0,2.68-.12,3.99.02,3.07.34,4.2-.32,3.82-3.96ZM56.91,79.95c-1.44-.13-3.5.83-3.3-2.19.89-13.2,1.65-26.42,2.46-39.62.52-.03,1.04-.06,1.56-.08.47,7.52.95,15.04,1.41,22.56.34,5.64.57,11.28,1.01,16.91.21,2.66-1.43,2.57-3.14,2.42Z"/>
      <path class="cls-2" d="M206.51,114.01c-3.25-30.92-6.39-61.85-9.39-92.79-1.17-12.12-.98-12.14-12.95-12.14-2.83,0-5.68.24-8.48-.06-3.25-.35-4.2.92-4.5,4.05-2.9,30.45-6.03,60.88-8.86,91.34-.41,4.36-3.19,10.28-.36,12.72,2.61,2.25,8.56.46,13,.83,3.28.27,3.86-1.2,3.94-4,.15-5.65.72-11.28.87-16.93.06-2.31.65-3.1,3.1-3.19,3.54-.13,5.78.42,5.24,4.7-.23,1.79.05,3.65.18,5.48.33,4.45-.91,10.42,1.48,12.95,2.74,2.89,8.81.51,13.39.97,3.3.33,3.65-.85,3.33-3.92ZM183.57,80.04c-2.56.09-2.99-.83-2.82-3.2.91-12.92,1.66-25.85,2.46-38.78-.22-1.06-.41-2.12,1.11-3.43.8,4.45.86,8.41.67,12.38.64,9.94,1.18,19.89,1.99,29.81.24,2.98-1.08,3.13-3.41,3.21Z"/>
      <path class="cls-2" d="M687.8,113.8c-3.26-30.75-6.37-61.52-9.35-92.29-1.2-12.41-1.01-12.43-13.17-12.43-2.33,0-4.7.27-6.98-.06-4.25-.61-5.6.91-5.95,5.24-1.27,15.91-3.01,31.78-4.58,47.66-1.72,17.37-3.38,34.75-5.22,52.11-.32,2.98.17,4.22,3.48,3.93,3.47-.31,7-.27,10.47,0,2.96.22,3.66-1.05,3.71-3.7.11-5.15.57-10.29.74-15.44.1-3,.11-5.16,4.46-5.07,4.22.09,3.96,2.3,3.99,5.01.02,1.83.09,3.66.24,5.48.37,4.43-.77,10.32,1.63,12.87,2.51,2.67,8.5.44,12.93.84,3.38.31,3.96-.77,3.6-4.13ZM664.87,80.04c-2.56.09-2.99-.83-2.82-3.2.91-12.92,1.66-25.85,2.46-38.78h0c0-1.01-.8-2.22,1.18-3.07.74,4.09.79,8.05.61,12.03h0s0,0,0,0c.64,9.94,1.18,19.89,1.99,29.81.24,2.98-1.08,3.13-3.41,3.21Z"/>
      <path class="cls-2" d="M308.78,112.41c-1.44-12.38-2.61-24.79-3.86-37.2-2.1-20.84-4.2-41.68-6.24-62.53-.24-2.5-.84-3.82-3.82-3.69-5.81.26-11.65.24-17.46,0-2.93-.12-3.43,1.03-3.68,3.66-3.37,34.91-6.89,69.8-10.42,105.23,5.27,0,9.92-.17,14.55.06,2.82.14,3.23-1.1,3.3-3.48.17-5.65.85-11.29.83-16.93-.01-3.36,1.42-3.7,4.2-3.7,2.76,0,4.24.33,4.18,3.68-.08,4.81.74,9.63.63,14.44-.1,4.52,1.06,6.85,6.1,6,2.26-.38,4.7-.39,6.97,0,5.01.87,5.2-1.61,4.74-5.55ZM286.32,80.05c-2.44-.03-3.53-.4-3.33-3.27.84-11.9,1.43-23.82,2.12-35.72-.12-2.17-.31-4.34.58-6.41.03-.07.32-.12.39-.06.22.17.39.4.59.6h0c.82,13.89,1.6,27.78,2.52,41.66.15,2.34-.35,3.23-2.87,3.2Z"/>
      <path class="cls-2" d="M549.73,108.97c-.06-.66-.08-1.33-.14-1.99-3.14-31.23-6.33-62.45-9.37-93.68-.31-3.22-1.2-4.54-4.7-4.31-5.13.34-10.32.35-15.45,0-3.6-.25-4.7.85-5.04,4.46-3.21,33.89-6.6,67.76-10.02,101.62-.22,2.22.29,2.93,2.51,2.86,3.98-.13,7.98-.16,11.96.01,2.4.11,3.11-.76,3.18-3.09.17-5.81.79-11.6.86-17.41.03-2.87.97-3.83,3.74-3.54,2.19.23,4.7-.74,4.53,3.23-.17,3.96.49,7.95.67,11.92.41,8.84.38,8.84,9.11,8.84s8.95,0,8.14-8.92ZM527.36,80.08c-3.25.02-2.89-1.73-2.76-3.79.72-11.08,1.41-22.17,2.11-33.25.08-.05.13-.12.18-.2-.06.07-.12.13-.18.2.01-1.66.03-3.33.04-4.99v-6.92c2.52,1.15,1.64,2.73,1.69,3.98h0c.03,1.98.05,3.97.08,5.95h0c.7,11.75,1.33,23.5,2.15,35.24.19,2.71-.29,3.76-3.32,3.78Z"/>
      <path class="cls-2" d="M500.9,34.4c-.01-5.14.15-10.27-.84-15.39-1.07-5.51-4.26-8.14-9.67-9.09-8.93-1.56-17.91-.32-26.84-.92-3.99-.27-5.32.64-5.24,4.98.3,16.44.12,32.9.12,49.35,0,13.46-.06,26.92.03,40.38.03,4.59-1.98,10.67.8,13.38,2.78,2.71,8.86.39,13.45.86,3.59.37,3.98-1.31,3.93-4.28-.16-9.14-.06-18.28-.06-27.42q0-7.08,7.22-7.3c13.06-.4,16.54-3.64,16.97-16.64.31-9.29.15-18.61.13-27.91ZM478.82,65.01c-3.67-.02-2.16-2.74-2.18-4.3-.13-11.15-.12-22.29,0-33.44.02-1.58-1.43-4.28,2.23-4.25,3.21.02,3.89,1.92,3.88,4.56,0,5.49,0,10.98,0,16.47,0,5.49,0,10.98,0,16.47,0,2.67-.76,4.51-3.94,4.5Z"/>
    </g>
  </g>
</svg>