<svg width="19" height="30" viewBox="0 0 19 30" fill="none" xmlns="http://www.w3.org/2000/svg">
<path d="M18.6844 4.65631C19.0751 4.09476 19.1185 3.31724 18.7278 2.7125C18.207 1.76219 17.3824 0.941469 16.4275 0.423119C15.1689 -0.268014 14.1707 -0.181622 13.4328 1.20064C12.5214 2.84208 11.5231 4.48352 10.5683 6.12497L7.8774 10.7469C7.70379 10.2718 6.70555 5.7362 6.18473 3.57641C6.05453 3.01487 5.79411 2.49652 5.4035 2.06456C4.49206 1.11425 3.27681 0.552707 1.93136 0.509511C0.325493 0.509511 -0.108526 0.984665 0.0216796 2.32373C0.0650814 2.79889 0.151885 3.31724 0.238688 3.79239C0.802911 6.64332 1.67095 9.45104 2.84279 12.1292C3.32021 13.2091 3.88444 14.2458 4.57886 15.2393C4.83927 15.4985 4.88268 15.9304 4.66567 16.2328C3.79763 18.0902 2.8428 19.9476 2.06156 21.8482C1.28033 23.5761 0.933119 25.4335 0.97652 27.3341C1.01992 28.0684 1.36713 28.7596 1.97476 29.1915C2.84279 29.8827 3.97124 30.1418 5.05628 29.9259C6.05452 29.8395 6.92256 29.1483 7.18297 28.1548C8.52842 22.237 10.8721 16.5352 14.0838 11.3949C15.7331 9.06228 17.2088 6.90249 18.6844 4.65631Z" fill="#FC155C"/>
</svg>
